#define A_width 5
#define A_height 8
static char A_bits[] = {
  0x06, 0x06, 0x0E, 0x0F, 0x19, 0x00, 0x00, 0x00, };
