#define Б_width 5
#define Б_height 8
static char Б_bits[] = {
  0x0F, 0x01, 0x0F, 0x0B, 0x0F, 0x00, 0x00, 0x00, };
